<svg width="21" height="22" viewBox="0 0 21 22" fill="none" xmlns="http://www.w3.org/2000/svg">
    <path d="M18.1001 3.89998C14.2001 -2.43187e-05 7.8001 -2.43187e-05 3.9001 3.89998C9.77516e-05 7.79998 9.77516e-05 14.2 3.9001 18.1C7.8001 22 14.1001 22 18.0001 18.1C21.9001 14.2 22.0001 7.79998 18.1001 3.89998V3.89998ZM13.8001 15.2L11.0001 12.4L8.2001 15.2L6.8001 13.8L9.6001 11L6.8001 8.19998L8.2001 6.79998L11.0001 9.59998L13.8001 6.79998L15.2001 8.19998L12.4001 11L15.2001 13.8L13.8001 15.2V15.2Z"
          fill="white"/>
</svg>
